# xmcd
#
# Track frame offsets: 
#        150
#        17805
#        30023
#        41731
#        52461
#        64128
#        82717
#        95797
#        109719
#        123675
#        140801
#        152635
#        165517
#        178046
#        197758
#        211112
#        225372
#        243001
#        259234
#        280764
#        295175
#        307099
#        320336
#
# Disc length: 4360 seconds
#
# Revision: 0
# Processed by: cddbd v1.5.2PL0 Copyright (c) Steve Scherf et al.
# Submitted via: ExactAudioCopy v0.95b3
#
DISCID=43110617
DTITLE=Dr. Hook  - Dr. Hook  and  Sloppy Seconds
DYEAR=1900
DGENRE=
TTITLE0=Sylvia's Mother
TTITLE1=Marie Lavaux
TTITLE2=Sing Me a Rainbow
TTITLE3=Hey, Lady Godiva
TTITLE4=Four Years Older Than Me
TTITLE5=Kiss It Away
TTITLE6=Makin' it Natural
TTITLE7=I Call That True Love
TTITLE8=When She Cries
TTITLE9=Judy
TTITLE10=Mama, I'll Sing One Song For You
TTITLE11=Freakin' At The Freakers Ball
TTITLE12=If I'd Only Come And Gone
TTITLE13=Carry Me, Carrie
TTITLE14=The Things I Didn' t Say
TTITLE15=Get My Rocks Off
TTITLE16=Last Mornin'
TTITLE17=I Can't Touch The Sun
TTITLE18=Queen Of The Silver Dollar
TTITLE19=Turn Off The World
TTITLE20=Stayin' Song
TTITLE21=Cover Of The Rolling Stone
TTITLE22=Lookin' For Pussy
EXTD=
EXTT0=
EXTT1=
EXTT2=
EXTT3=
EXTT4=
EXTT5=
EXTT6=
EXTT7=
EXTT8=
EXTT9=
EXTT10=
EXTT11=
EXTT12=
EXTT13=
EXTT14=
EXTT15=
EXTT16=
EXTT17=
EXTT18=
EXTT19=
EXTT20=
EXTT21=
EXTT22=
PLAYORDER=
